inDegrees=yes
name=IK-live
DataType=double
version=3
OpenSimVersion=4.1
endheader
time	pelvis_tilt	pelvis_list	pelvis_rotation	pelvis_tx	pelvis_ty	pelvis_tz	hip_flexion_r	hip_adduction_r	hip_rotation_r	knee_angle_r	ankle_angle_r	subtalar_angle_r	mtp_angle_r	hip_flexion_l	hip_adduction_l	hip_rotation_l	knee_angle_l	ankle_angle_l	subtalar_angle_l	mtp_angle_l	lumbar_extension	lumbar_bending	lumbar_rotation	neck_flex	neck_latbend	neck_rot	arm_flex_r	arm_add_r	arm_rot_r	elbow_flex_r	pro_sup_r	wrist_flex_r	wrist_dev_r	arm_flex_l	arm_add_l	arm_rot_l	elbow_flex_l	pro_sup_l	wrist_flex_l	wrist_dev_l
12.8111654	7.970004542734596	-5.384408220080673	-25.37195711987233	0.2341366603171506	0.04326292228651554	-1.326684523481465	-22.57117169827992	-1.591976316804377	-3.241458145969817	5.899560354604904	2.451982624139334	1.987972377786656	0	-24.74788768789517	-3.395140484746916	-11.58000132048591	9.793848132074926	-0.4439473045988533	4.250290820099795	0	-21.37711699760957	1.659277491615732	3.206407148933037	0	0	0	0.7776086938882761	-15.17651389200337	33.31476462223044	6.96192667574868	24.86542621292472	0	0.008416146566069135	5.868819037193539	-13.22967807690925	43.90390434692091	6.775304187521849	33.47581722468635	0	0.008416146566069135
12.964094	-9.291894566937398	9.626475172731125	-22.16894692926005	0.2341366603171506	0.04326292228651554	-1.326684523481465	-22.57117169827992	-1.591976316804377	-3.241458145969817	5.899560354604904	2.451982624139334	1.987972377786656	0	-24.74788768789517	-3.395140484746916	-11.58000132048591	9.793848132074926	-0.4439473045988533	4.250290820099795	0	-21.37711699760957	1.659277491615732	3.206407148933037	0	0	0	0.7730022701164619	-15.17653404047452	33.32073874992226	6.881367160543638	24.85010383400656	0	0.001436787640028605	5.864625558725575	-13.22947594434339	43.91280278952124	6.692541033804249	33.46827808992407	0	0.001436787640028605
13.1269074	-8.833794789087474	1.094299629248852	-6.722644221556316	0.2341366603171506	0.04326292228651554	-1.326684523481465	-22.57117169827992	-1.591976316804377	-3.241458145969817	5.899560354604904	2.451982624139334	1.987972377786656	0	-24.74788768789517	-3.395140484746916	-11.58000132048591	9.793848132074926	-0.4439473045988533	4.250290820099795	0	-21.37711699760957	1.659277491615732	3.206407148933037	0	0	0	0.7757585597333733	-15.17652198257903	33.3171629327434	6.929568264886275	24.8592769116812	0	0.005615007736290006	5.86713470271726	-13.22959691102824	43.90747631446446	6.74205888983399	33.47279152048819	0	0.005615007736290006
13.2878881	17.48464034805757	-16.72202984985838	19.65864898752808	0.2341366603171506	0.04326292228651554	-1.326684523481465	-22.57117169827992	-1.591976316804377	-3.241458145969817	5.899560354604904	2.451982624139334	1.987972377786656	0	-24.74788768789517	-3.395140484746916	-11.58000132048591	9.793848132074926	-0.4439473045988533	4.250290820099795	0	-21.37711699760957	1.659277491615732	3.206407148933037	0	0	0	0.7847295061426185	-15.17648271496446	33.30550781748709	7.088185941064997	24.88929040191125	0	0.01930967429828985	5.875300747793278	-13.22999085011866	43.89010757624936	6.905022834226229	33.48754554837868	0	0.01930967429828985
13.449688	14.27524668075646	-21.14257624693163	26.71753339090084	0.2341366603171506	0.04326292228651554	-1.326684523481465	-22.57117169827992	-1.591976316804377	-3.241458145969817	5.899560354604904	2.451982624139334	1.987972377786656	0	-24.74788768789517	-3.395140484746916	-11.58000132048591	9.793848132074926	-0.4439473045988533	4.250290820099795	0	-21.37711699760957	1.659277491615732	3.206407148933037	0	0	0	0.7854806920282454	-15.17647942089324	33.30452758111647	7.101963533116267	24.89183937521993	0	0.02047726617105661	5.875984382034361	-13.23002389684747	43.88864501909092	6.919189149519593	33.48879557746299	0	0.02047726617105661
13.612689	10.37919353126821	-23.68886305711409	25.11870805547329	0.2341366603171506	0.04326292228651554	-1.326684523481465	-22.57117169827992	-1.591976316804377	-3.241458145969817	5.899560354604904	2.451982624139334	1.987972377786656	0	-24.74788768789517	-3.395140484746916	-11.58000132048591	9.793848132074926	-0.4439473045988533	4.250290820099795	0	-21.37711699760957	1.659277491615732	3.206407148933037	0	0	0	0.7850588572127	-15.17648126438678	33.30507346165529	7.094857628759252	24.8904469641152	0	0.01984433258063565	5.875600317070058	-13.23000540265728	43.88945755562243	6.911900299324728	33.48810932779498	0	0.01984433258063565
13.7764734	5.36009267603819	-21.62164490710516	20.4386788986563	0.2341366603171506	0.04326292228651554	-1.326684523481465	-22.57117169827992	-1.591976316804377	-3.241458145969817	5.899560354604904	2.451982624139334	1.987972377786656	0	-24.74788768789517	-3.395140484746916	-11.58000132048591	9.793848132074926	-0.4439473045988533	4.250290820099795	0	-21.37711699760957	1.659277491615732	3.206407148933037	0	0	0	0.7837236096393868	-15.17648711077888	33.30680946249883	7.071216748265346	24.88596942533228	0	0.01779984616907114	5.874384911209613	-13.22994675068236	43.89204507791491	6.887615863435782	33.48590894649513	0	0.01779984616907114
13.9394771	14.93070397820931	-10.44157301002587	13.52287351056225	0.2341366603171506	0.04326292228651554	-1.326684523481465	-22.57117169827992	-1.591976316804377	-3.241458145969817	5.899560354604904	2.451982624139334	1.987972377786656	0	-24.74788768789517	-3.395140484746916	-11.58000132048591	9.793848132074926	-0.4439473045988533	4.250290820099795	0	-21.37711699760957	1.659277491615732	3.206407148933037	0	0	0	0.7843882159651814	-15.1764842165163	33.30595674475961	7.081589077437049	24.88810168590678	0	0.01876109645331824	5.874990269166762	-13.22997578621634	43.89077888978682	6.898237410402515	33.48696505347174	0	0.01876109645331824
14.1003291	21.94040888135213	-6.829447070919868	4.092363182136688	0.2341366603171506	0.04326292228651554	-1.326684523481465	-22.57117169827992	-1.591976316804377	-3.241458145969817	5.899560354604904	2.451982624139334	1.987972377786656	0	-24.74788768789517	-3.395140484746916	-11.58000132048591	9.793848132074926	-0.4439473045988533	4.250290820099795	0	-21.37711699760957	1.659277491615732	3.206407148933037	0	0	0	0.7840713958339678	-15.17648561157263	33.30637432501305	7.075253057540481	24.88699132044389	0	0.01824799860036299	5.87470208725646	-13.22996179068562	43.89140368931641	6.89171024557803	33.48642354296886	0	0.01824799860036299
14.2622864	25.07892350443241	-15.61275188485921	-4.453806956256531	0.2341366603171506	0.04326292228651554	-1.326684523481465	-22.57117169827992	-1.591976316804377	-3.241458145969817	5.899560354604904	2.451982624139334	1.987972377786656	0	-24.74788768789517	-3.395140484746916	-11.58000132048591	9.793848132074926	-0.4439473045988533	4.250290820099795	0	-21.37711699760957	1.659277491615732	3.206407148933037	0	0	0	0.7854820662879987	-15.17647943213526	33.30453828978813	7.100243405577516	24.89173807811117	0	0.02041776772226025	5.875986085063415	-13.23002378385659	43.8886662942935	6.91737123089491	33.48875519405836	0	0.02041776772226025
14.4243858	19.0047058875128	-25.09531772615184	-26.46983987744658	0.2341366603171506	0.04326292228651554	-1.326684523481465	-22.57117169827992	-1.591976316804377	-3.241458145969817	5.899560354604904	2.451982624139334	1.987972377786656	0	-24.74788768789517	-3.395140484746916	-11.58000132048591	9.793848132074926	-0.4439473045988533	4.250290820099795	0	-21.37711699760957	1.659277491615732	3.206407148933037	0	0	0	0.7832443751078282	-15.17648922081768	33.30744073566969	7.061623311570037	24.88429920924734	0	0.0170304590281593	5.873949012458648	-13.22992558228327	43.89298927853698	6.877723556768164	33.4850935048286	0	0.0170304590281593
14.5753031	18.63439249418424	-27.8987990189098	-43.81557697422765	0.2341366603171506	0.04326292228651554	-1.326684523481465	-22.57117169827992	-1.591976316804377	-3.241458145969817	5.899560354604904	2.451982624139334	1.987972377786656	0	-24.74788768789517	-3.395140484746916	-11.58000132048591	9.793848132074926	-0.4439473045988533	4.250290820099795	0	-21.37711699760957	1.659277491615732	3.206407148933037	0	0	0	0.7798181261104138	-15.17650422090665	33.31189368474263	7.001204856550557	24.8728322394248	0	0.01179899279643303	5.870830256684628	-13.22977509892662	43.89962547582238	6.815660211481093	33.47945608165686	0	0.01179899279643303
14.7373171	21.99224847525306	-28.23837575481879	-39.10735388076581	0.2341366603171506	0.04326292228651554	-1.326684523481465	-22.57117169827992	-1.591976316804377	-3.241458145969817	5.899560354604904	2.451982624139334	1.987972377786656	0	-24.74788768789517	-3.395140484746916	-11.58000132048591	9.793848132074926	-0.4439473045988533	4.250290820099795	0	-21.37711699760957	1.659277491615732	3.206407148933037	0	0	0	0.7841285571023801	-15.17648536068705	33.30629926465031	7.076190565595692	24.8871973145415	0	0.018345667249391	5.874754134841671	-13.22996430761812	43.89129128636143	6.892655350337401	33.48652352481673	0	0.018345667249391
14.8882006	26.36818912103318	-23.39150111121623	-3.349039170556297	0.2341366603171506	0.04326292228651554	-1.326684523481465	-22.57117169827992	-1.591976316804377	-3.241458145969817	5.899560354604904	2.451982624139334	1.987972377786656	0	-24.74788768789517	-3.395140484746916	-11.58000132048591	9.793848132074926	-0.4439473045988533	4.250290820099795	0	-21.37711699760957	1.659277491615732	3.206407148933037	0	0	0	0.7859722404436582	-15.17647727743099	33.30389484773008	7.109564811103766	24.89343495342726	0	0.02119972174002871	5.876432056060207	-13.23004540030745	43.88770463288837	6.926954770319918	33.48958464564037	0	0.02119972174002871
19.1764548	25.45259280242179	-26.84925765608834	-37.67509397162537	0.2341366603171506	0.04326292228651554	-1.326684523481465	-22.57117169827992	-1.591976316804377	-3.241458145969817	5.899560354604904	2.451982624139334	1.987972377786656	0	-24.74788768789517	-3.395140484746916	-11.58000132048591	9.793848132074926	-0.4439473045988533	4.250290820099795	0	-21.37711699760957	1.659277491615732	3.206407148933037	0	0	0	0.7843422976745096	-15.17648443007196	33.30602514676912	7.0794991332793	24.88788260898488	0	0.0186546868407699	5.874948828340886	-13.22997364364001	43.89088429105248	6.896041665543763	33.48686299589418	0	0.0186546868407699
19.336456	23.26645289306988	-25.51320176570209	-32.98631804598165	0.2341366603171506	0.04326292228651554	-1.326684523481465	-22.57117169827992	-1.591976316804377	-3.241458145969817	5.899560354604904	2.451982624139334	1.987972377786656	0	-24.74788768789517	-3.395140484746916	-11.58000132048591	9.793848132074926	-0.4439473045988533	4.250290820099795	0	-21.37711699760957	1.659277491615732	3.206407148933037	0	0	0	0.7838529749611819	-15.17648656587293	33.30665651658262	7.071473564467794	24.88628171961476	0	0.01792857912456236	5.874503247160866	-13.22995221701125	43.89182333587679	6.887815784088017	33.48607280703572	0	0.01792857912456236
19.4893291	28.5138537665135	-17.32008497507219	-5.650522596925746	0.2341366603171506	0.04326292228651554	-1.326684523481465	-22.57117169827992	-1.591976316804377	-3.241458145969817	5.899560354604904	2.451982624139334	1.987972377786656	0	-24.74788768789517	-3.395140484746916	-11.58000132048591	9.793848132074926	-0.4439473045988533	4.250290820099795	0	-21.37711699760957	1.659277491615732	3.206407148933037	0	0	0	0.7860648975452481	-15.17647688086228	33.30378106819373	7.110318728315698	24.89368707232728	0	0.02130709871341135	5.876516628775609	-13.23004937863984	43.8875379403258	6.927707734814096	33.48971374601318	0	0.02130709871341135
19.6521715	28.9422460863045	-16.25233455553813	9.946589933554524	0.2341366603171506	0.04326292228651554	-1.326684523481465	-22.57117169827992	-1.591976316804377	-3.241458145969817	5.899560354604904	2.451982624139334	1.987972377786656	0	-24.74788768789517	-3.395140484746916	-11.58000132048591	9.793848132074926	-0.4439473045988533	4.250290820099795	0	-21.37711699760957	1.659277491615732	3.206407148933037	0	0	0	0.7860430629810575	-15.17647696987507	33.30380472362864	7.110521580312962	24.89365319911439	0	0.02129649091235522	5.876496582068747	-13.23004848572777	43.88757122151075	6.927930802648789	33.48969372708883	0	0.02129649091235522
